<svg xmlns="http://www.w3.org/2000/svg" width="512" height="512" viewBox="0 0 512 512">
    <path d="M474 104.5c-4.411 0-8-3.589-8-8s3.589-8 8-8 8 3.589 8 8-3.589 8-8 8zm-22-8c0-4.411-3.589-8-8-8s-8 3.589-8 8 3.589 8 8 8 8-3.589 8-8zm-30 0c0-4.142-3.357-7.5-7.5-7.5-.168 0-.335.005-.5.017-.165-.011-.332-.017-.5-.017-4.143 0-7.5 3.358-7.5 7.5 0 4.411 3.589 8 8 8s8-3.589 8-8zM512 81v350c0 12.407-10.094 22.5-22.5 22.5h-467C10.093 453.5 0 443.407 0 431V157c0-4.142 3.358-7.5 7.5-7.5s7.5 3.358 7.5 7.5v251.5h482v-274h-15V386c0 4.142-3.357 7.5-7.5 7.5s-7.5-3.358-7.5-7.5V134.5H7.5c-4.142 0-7.5-3.358-7.5-7.5V81c0-12.407 10.093-22.5 22.5-22.5h361c4.143 0 7.5 3.358 7.5 7.5s-3.357 7.5-7.5 7.5h-361c-4.136 0-7.5 3.364-7.5 7.5v38.5h482V81c0-4.136-3.364-7.5-7.5-7.5h-76c-4.143 0-7.5-3.358-7.5-7.5s3.357-7.5 7.5-7.5h76c12.406 0 22.5 10.093 22.5 22.5zM370.646 227.574c5.215 13.797 7.854 28.321 7.854 43.25 0 67.547-54.953 122.5-122.5 122.5s-122.5-54.953-122.5-122.5 54.953-122.5 122.5-122.5c27.239 0 53.027 8.751 74.575 25.308 3.284 2.524 3.901 7.232 1.377 10.517-2.523 3.285-7.232 3.902-10.517 1.378C302.532 171 279.905 163.323 256 163.323c-59.276 0-107.5 48.224-107.5 107.5s48.224 107.5 107.5 107.5 107.5-48.224 107.5-107.5c0-10.776-1.565-21.309-4.664-31.44l-91.538 91.538c-8.773 8.773-23.047 8.773-31.82 0l-52.059-52.06c-8.773-8.773-8.772-23.046-.001-31.819l.001-.001c8.772-8.772 23.046-8.772 31.819.001l36.15 36.15L339.4 195.18c8.773-8.773 23.045-8.772 31.82.001 8.773 8.771 8.772 23.046 0 31.819zm-176.62 30.074c-2.924 2.924-2.924 7.682 0 10.607l52.059 52.06c2.924 2.924 7.682 2.924 10.607 0l103.922-103.922c2.924-2.924 2.924-7.682 0-10.606s-7.682-2.924-10.605-.001l-.001.001-93.316 93.315c-2.929 2.929-7.678 2.929-10.607 0l-41.453-41.453c-2.924-2.925-7.682-2.925-10.606-.001zM497 431v-7.5H15v7.5c0 4.136 3.364 7.5 7.5 7.5h467c4.136 0 7.5-3.364 7.5-7.5z"/>
</svg>
