<svg xmlns="http://www.w3.org/2000/svg" enable-background="new 0 0 472 472" viewBox="0 0 472 472">
    <path d="M403.992 336h-64v104h64V336zm-16 88h-32v-72h32v72zM259.992 264h-192c-13.255 0-24 10.745-24 24v152h240V288c0-13.255-10.745-24-24-24zm8 160h-208V320h208v104zm0-120h-208v-16c0-4.418 3.582-8 8-8h192c4.418 0 8 3.582 8 8v16z"/>
    <path d="M467.44 109.272c-.08-.224-.16-.44-.256-.656s-.112-.344-.2-.496l-38.992-70.192V8c0-4.418-3.582-8-8-8h-376c-4.418 0-8 3.582-8 8v30.304L4.68 108.752v.072c0 .088-.048.192-.088.28-.311.816-.484 1.679-.512 2.552 0 .12-.072.224-.072.344v360h463.984V112v-.144c-.036-.886-.223-1.76-.552-2.584zM446.392 104H353.76l-18.664-56h80.192l31.104 56zm-106.4 16v80c0 17.673-14.327 32-32 32h-32c-17.673 0-32-14.327-32-32v-80h96zm-96-16V48h74.232l18.664 56h-92.896zm-192-88h360v16h-360V16zm83.104 88l18.664-56h74.232v56h-92.896zm92.896 16v72c-.026 22.08-17.92 39.974-40 40h-16c-22.08-.026-39.974-17.92-40-40v-72h96zm-178.8-72h87.696l-18.664 56h-93.92l24.888-56zm-29.2 72h96v68.8c-.026 23.848-19.352 43.174-43.2 43.2h-12.8c-22.08-.026-39.974-17.92-40-40v-72zm400 336h-96V320h96v136zm0-152h-96v-9.6c0-7.953 6.447-14.4 14.4-14.4h67.2c7.953 0 14.4 6.447 14.4 14.4v9.6zm32 152h-16V294.4c0-16.789-13.611-30.4-30.4-30.4h-67.2c-16.789 0-30.4 13.611-30.4 30.4V456h-288V231.112c10.506 10.8 24.933 16.892 40 16.888h12.8c20.647-.022 39.787-10.811 50.496-28.464 9.921 17.569 28.527 28.443 48.704 28.464h16c18.5-.014 35.8-9.164 46.224-24.448 8.496 15.088 24.46 24.43 41.776 24.448h32c17.316-.018 33.28-9.36 41.776-24.448 10.424 15.284 27.724 24.434 46.224 24.448h16c15.067.004 29.494-6.088 40-16.888V456zm0-264c-.026 22.08-17.92 39.974-40 40h-16c-22.08-.026-39.974-17.92-40-40v-72h96v72z"/>
</svg>
