<?xml version="1.0" encoding="utf-8"?>
<!-- Generator: Adobe Illustrator 24.0.2, SVG Export Plug-In . SVG Version: 6.00 Build 0)  -->
<svg version="1.1" id="Capa_1" xmlns="http://www.w3.org/2000/svg" xmlns:xlink="http://www.w3.org/1999/xlink" x="0px" y="0px"
	 viewBox="0 0 269 335" style="enable-background:new 0 0 269 335;" xml:space="preserve">
<path d="M259.5,117.2L194.5,92c11.8-33.4-5.8-70-39.2-81.8s-70,5.8-81.8,39.2c-4.8,13.8-4.8,28.8,0,42.6L8.5,117.2
	c-2.7,1-4.5,3.6-4.5,6.5v150.9c0,2.9,1.8,5.5,4.5,6.5l123,47.7c0.8,0.3,1.7,0.5,2.5,0.5c0.9,0,1.7-0.2,2.5-0.5l0,0l123-47.7
	c2.7-1,4.5-3.6,4.5-6.5V123.7C264,120.8,262.2,118.2,259.5,117.2L259.5,117.2z M237.6,123.7l-22.7,8.8L177.3,118
	c4.3-3.9,8-8.5,11.1-13.4L237.6,123.7z M163.5,127.7l32,12.3l-18.1,7l-33.1-12.9C151,133,157.5,130.8,163.5,127.7z M185.3,159
	l23.5-9.1V179l-3.9-2.6c-2.8-1.8-6.6-1.4-8.9,1.1l-10.7,11.3V159z M134,20.7c27.7,0,50.1,22.4,50.1,50.1S161.7,121,134,121
	S83.9,98.5,83.9,70.8l0,0C83.9,43.2,106.3,20.8,134,20.7z M83.6,110.3l-9.4-3.7l5.4-2.1C80.8,106.6,82.2,108.5,83.6,110.3
	L83.6,110.3z M54.9,114.2l103.2,40.3l-24.1,9.4L30.4,123.7L54.9,114.2z M18,269.8V133.9l109,42.3v135.9L18,269.8z M141,312.1V176.2
	l30.3-11.8v42.1c0,2.9,1.8,5.4,4.4,6.5c0.8,0.3,1.7,0.5,2.6,0.5c1.9,0,3.8-0.8,5.1-2.2l18.7-19.9l9.9,6.4c3.2,2.1,7.6,1.2,9.7-2.1
	c0.7-1.1,1.1-2.4,1.1-3.8v-47.5l27.2-10.5v135.9L141,312.1z"/>
<path d="M121.5,91.4c2.7,2.3,6.6,2.2,9.2-0.1l33.9-30.5c3-2.5,3.3-6.9,0.9-9.9c-2.5-3-6.9-3.3-9.9-0.9c-0.1,0.1-0.2,0.2-0.4,0.3
	l-29.4,26.4l-13.4-11.3c-3-2.5-7.4-2.1-9.9,0.8s-2.1,7.4,0.8,9.9L121.5,91.4z"/>
</svg>
